# Blender3D v248 OBJ File: prism1.blend
# www.blender3d.org
mtllib prism1.mtl
v -13.432343 0.027513 -1.126566
v -13.624721 0.027513 0.864160
v -15.615447 0.027513 0.671783
v -15.423070 0.027513 -1.318944
v -13.432343 6.177084 -1.126566
v -13.624722 6.177084 0.864160
v -15.615447 6.177084 0.671783
v -15.423070 6.177084 -1.318943
vn 0.000000 -1.000000 0.000000
vn 0.000000 1.000000 0.000000
vn 0.995363 0.000000 0.096189
vn -0.096189 0.000000 0.995363
vn -0.995363 -0.000000 -0.096189
vn 0.096189 0.000000 -0.995363
usemtl black
s off
f 1//1 2//1 3//1 4//1
f 5//2 8//2 7//2 6//2
f 1//3 5//3 6//3 2//3
f 2//4 6//4 7//4 3//4
f 3//5 7//5 8//5 4//5
f 5//6 1//6 4//6 8//6
v -13.220800 0.041674 -3.243335
v -13.413177 0.041674 -1.252608
v -15.403904 0.041674 -1.444985
v -15.211527 0.041674 -3.435712
v -13.220800 6.191245 -3.243335
v -13.413178 6.191245 -1.252608
v -15.403904 6.191245 -1.444986
v -15.211527 6.191245 -3.435712
usemtl black
s off
f 9//1 10//1 11//1 12//1
f 13//2 16//2 15//2 14//2
f 9//3 13//3 14//3 10//3
f 10//4 14//4 15//4 11//4
f 11//5 15//5 16//5 12//5
f 13//6 9//6 12//6 16//6
v 21.762342 0.030378 -21.135710
v 21.762342 0.030379 4.284743
v -16.264973 0.030379 4.284741
v -16.264965 0.030378 -21.135715
usemtl white
s off
f 17//2 20//2 19//2 18//2
v -15.165468 0.154497 -1.401965
v -15.175204 0.154497 -1.301212
v -15.175205 6.086046 -1.301212
v -15.165469 6.086044 -1.401966
vn 0.995364 0.000000 0.096184
usemtl light
s off
f 21//7 24//7 23//7 22//7
v 21.433844 6.602619 -18.669666
v 21.433846 0.083398 -18.669668
v -0.957211 0.083397 -7.698666
v -0.957206 6.602619 -7.698668
vn 0.439995 -0.000000 0.898000
usemtl white
s off
f 25//8 28//8 27//8 26//8
v -6.384638 6.172053 -5.744188
v -6.384637 0.038740 -5.744188
v -11.882024 0.038740 -3.024576
v -11.882022 6.172054 -3.024576
v -6.740527 0.038739 0.452400
v -6.740525 6.172052 0.452399
vn -0.443416 0.000000 -0.896316
vn 0.998355 -0.000000 0.057339
vn -0.560188 0.000000 0.828365
usemtl crown_glass
s off
f 29//9 30//9 31//9 32//9
f 29//10 34//10 33//10 30//10
f 30//1 33//1 31//1
f 31//11 33//11 34//11 32//11
f 34//2 29//2 32//2
